<?xml version="1.0" encoding="utf-8"?>
<!-- Generator: Adobe Illustrator 21.0.2, SVG Export Plug-In . SVG Version: 6.00 Build 0)  -->
<svg version="1.2" baseProfile="tiny" id="Layer_2" xmlns="http://www.w3.org/2000/svg" xmlns:xlink="http://www.w3.org/1999/xlink"
	 x="0px" y="0px" viewBox="0 0 1024 1024" overflow="scroll" xml:space="preserve">
<rect fill="none" width="1024" height="1024"/>
<path fill="#FFFFFF" d="M717.5,343.7c0-0.1,0.1-0.2,0.1-0.3c2.8-7-0.5-15-7.5-17.8c-1.7-0.7-3.4-1-5.1-1c-5.4,0-10.5,3.2-12.6,8.5
	c-0.7,1.7-1,3.4-1,5.1c-0.2-0.1-0.4-0.2-0.6-0.3c-1-0.4-2.1-0.7-3.1-0.9c-0.7-7.7-5.7-14.7-13.3-17.8c-1.2-0.5-2.4-0.9-3.7-1.1
	c0.5-0.8,1-1.7,1.4-2.6c2.9-7.3-0.5-15.5-7.8-18.4c-1.8-0.7-3.6-1.1-5.3-1.1c-2.1,0-4.1,0.5-6,1.3c-1.4-1-2.8-1.8-4.4-2.5
	c-0.2-0.1-0.5-0.2-0.7-0.3c0.5-6.9-3.5-13.6-10.2-16.2c-2-0.9-4.1-1.2-6.1-1.2c-4.5,0-8.8,1.9-11.9,5.1c-1.7-1.8-3.7-3.4-6-4.6
	c-3.1-1.6-6.5-2.3-9.8-2.3c-1.3,0-2.6,0.1-3.9,0.4c-0.6-1.1-1.4-2.2-2.2-3.2c0.4-6.8-3.2-13.6-9.7-17c-2.6-1.3-5.4-1.9-8.1-1.9
	c-5.5,0-10.9,2.6-14.3,7.1c-1.7-0.4-3.5-0.7-5.2-0.7c-2.3,0-4.5,0.4-6.7,1.1c-1.3-1.6-3-2.9-5-3.9c-2.4-1.2-4.9-1.8-7.4-1.8
	c-3,0-6,0.9-8.6,2.5c-2.5-1-5.1-1.5-7.7-1.5c-7.8,0-15.3,4.3-19.1,11.7c-0.1,0.2-0.2,0.5-0.3,0.7c-0.8-0.1-1.7-0.2-2.5-0.2
	c-1.2,0-2.5,0.1-3.7,0.4c-3-3.5-7.5-5.8-12.4-5.8c-0.3,0-0.5,0-0.7,0c-7.2,0.3-13.1,5.3-15,12c-0.3,0-0.5,0-0.8,0
	c-1.8,0.1-3.4,0.4-5.1,0.9c-2.6-2.5-6.1-4-9.9-4c-0.2,0-0.5,0-0.7,0c-7.8,0.3-13.9,7-13.5,14.8c0,1,0.2,2,0.4,2.9
	c-0.9-0.1-1.9-0.2-2.8-0.2c-0.3,0-0.7,0-1,0c-8.3,0.4-15.2,5.4-18.5,12.5c-0.8-0.1-1.6-0.2-2.3-0.2c-0.3,0-0.6,0-0.9,0
	c-0.2,0-0.4,0-0.6,0.1c0.6-1.6,0.8-3.3,0.8-5.1c-0.3-7.3-6.4-13-13.6-13c-0.2,0-0.4,0-0.7,0c-7.5,0.3-13.4,6.7-13,14.3
	c0,0.1,0,0.2,0,0.3c-1.2,0.3-2.3,0.6-3.4,1c-3-2.3-6.8-3.7-10.9-3.7c-8.8,0-16.1,6.4-17.6,14.8c-4,0.9-7.6,3-10.4,5.8
	c-1.9-0.8-4-1.2-6.2-1.2c-5.9,0-11.1,3.2-13.9,7.9c-10.8,1.1-19.2,10.3-19.2,21.3c0,0.2,0,0.5,0,0.7c-6.5,2.1-11.3,8.2-11.3,15.5
	c0,0.9,0.1,1.7,0.3,2.3h-0.1l72.1,407.7h36.9h32.2H496h32.2h58.2h32.3H656l70.6-401.9C729.7,359.1,725.8,348.8,717.5,343.7z
	 M373.6,764.6l-70.1-396h46.4l54.9,396H373.6z M437.2,764.6l-39.2-396h90l7.9,396H437.2z M528.3,764.6l7.8-396h90l-39.1,396H528.3z
	 M651.2,764.6h-31.7l54.7-396h46.4L651.2,764.6z"/>
</svg>
