<?xml version="1.0" encoding="utf-8"?>
<!-- Generator: Adobe Illustrator 21.0.2, SVG Export Plug-In . SVG Version: 6.00 Build 0)  -->
<svg version="1.2" baseProfile="tiny" id="Layer_1" xmlns="http://www.w3.org/2000/svg" xmlns:xlink="http://www.w3.org/1999/xlink"
	 x="0px" y="0px" viewBox="0 0 512 512" overflow="scroll" xml:space="preserve">
<rect fill="none" width="512" height="512"/>
<path fill="#0069AA" d="M280.4,188.1l5.5,5.1l5-4.8h35.5l-10.6,18.8v92c0,8.6-7,15.6-15.6,15.6c0,0,0,0,0,0H271
	c-6.3,0.1-12,3.5-15,9.1c-3-5.5-8.8-9-15-9.1h-29.1c-8.6,0-15.6-7-15.6-15.6c0,0,0,0,0,0v-92l-10.6-18.8h35.5l5,4.8l5.5-5.1H280.4z"
	/>
</svg>
