<?xml version="1.0" encoding="utf-8"?>
<!-- Generator: Adobe Illustrator 21.0.2, SVG Export Plug-In . SVG Version: 6.00 Build 0)  -->
<svg version="1.2" baseProfile="tiny" id="Layer_1" xmlns="http://www.w3.org/2000/svg" xmlns:xlink="http://www.w3.org/1999/xlink"
	 x="0px" y="0px" viewBox="0 0 512 512" overflow="scroll" xml:space="preserve">
<rect fill="none" width="512" height="512"/>
<polygon fill="#FFFFFF" points="291.6,218.8 326,218.8 326,210.7 303.7,210.7 325.9,180.1 325.9,174.5 292,174.5 292,182.6 
	313,182.6 291.4,211.7 246.3,211.7 246.3,222.5 274.4,222.5 244.1,263 244.1,263.7 188.7,263.7 188.7,277.3 223.8,277.3 186,327.9 
	186,337.5 245.4,337.5 245.4,324 208.3,324 245.3,273 245.3,270.7 291.6,270.7 291.6,259.9 262,259.9 291.6,219.1 "/>
</svg>
