<?xml version="1.0" encoding="utf-8"?>
<!-- Generator: Adobe Illustrator 21.0.2, SVG Export Plug-In . SVG Version: 6.00 Build 0)  -->
<svg version="1.2" baseProfile="tiny" id="Layer_1" xmlns="http://www.w3.org/2000/svg" xmlns:xlink="http://www.w3.org/1999/xlink"
	 x="0px" y="0px" viewBox="0 0 512 512" overflow="scroll" xml:space="preserve">
<path fill="#FFFFFF" d="M376,247.5h-9l5.7-5.7c2.5-2.5,2.5-6.5,0-9c-2.5-2.5-6.6-2.5-9,0l-14.7,14.7h-2.2l5.7-5.7
	c2.5-2.5,2.5-6.5,0-9c-2.5-2.5-6.6-2.5-9,0l-14.7,14.7h-52l36.8-36.8h20.9c3.5,0,6.4-2.9,6.4-6.4c0-3.5-2.9-6.4-6.4-6.4h-8.1
	l1.5-1.5h20.9c3.5,0,6.4-2.9,6.4-6.4c0-3.5-2.9-6.4-6.4-6.4h-8.1l6.4-6.4c3.3-3.3,3.3-8.7,0-12.1c-3.3-3.3-8.7-3.3-12.1,0l-6.4,6.4
	v-8.1c0-3.5-2.9-6.4-6.4-6.4c-3.5,0-6.4,2.9-6.4,6.4v20.9l-1.5,1.5v-8.1c0-3.5-2.9-6.4-6.4-6.4c-3.5,0-6.4,2.9-6.4,6.4v20.9
	l-36.8,36.8v-52l14.7-14.7c2.5-2.5,2.5-6.5,0-9c-2.5-2.5-6.6-2.5-9,0l-5.7,5.7v-2.2l14.7-14.7c2.5-2.5,2.5-6.5,0-9
	c-2.5-2.5-6.6-2.5-9,0l-5.7,5.7v-9c0-4.7-3.8-8.5-8.5-8.5c-4.7,0-8.5,3.8-8.5,8.5v9l-5.7-5.7c-2.5-2.5-6.5-2.5-9,0
	c-2.5,2.5-2.5,6.5,0,9l14.7,14.7v2.2l-5.7-5.7c-2.5-2.5-6.5-2.5-9,0c-2.5,2.5-2.5,6.5,0,9l14.7,14.7v52l-36.8-36.8v-20.9
	c0-3.5-2.9-6.4-6.4-6.4c-3.5,0-6.4,2.9-6.4,6.4v8.1l-1.5-1.5v-20.9c0-3.5-2.9-6.4-6.4-6.4c-3.5,0-6.4,2.9-6.4,6.4v8.1l-6.4-6.4
	c-3.3-3.3-8.7-3.3-12.1,0c-3.3,3.3-3.3,8.7,0,12.1l6.4,6.4h-8.1c-3.5,0-6.4,2.9-6.4,6.4c0,3.5,2.9,6.4,6.4,6.4h20.9l1.5,1.5h-8.1
	c-3.5,0-6.4,2.9-6.4,6.4c0,3.5,2.9,6.4,6.4,6.4h20.9l36.8,36.8h-52l-14.7-14.7c-2.5-2.5-6.5-2.5-9,0c-2.5,2.5-2.5,6.5,0,9l5.7,5.7
	h-2.2l-14.7-14.7c-2.5-2.5-6.5-2.5-9,0c-2.5,2.5-2.5,6.5,0,9l5.7,5.7h-9c-4.7,0-8.5,3.8-8.5,8.5c0,4.7,3.8,8.5,8.5,8.5h9l-5.7,5.7
	c-2.5,2.5-2.5,6.5,0,9c1.2,1.2,2.9,1.9,4.5,1.9c1.6,0,3.3-0.6,4.5-1.9l14.7-14.7h2.2l-5.7,5.7c-2.5,2.5-2.5,6.5,0,9
	c1.2,1.2,2.9,1.9,4.5,1.9c1.6,0,3.3-0.6,4.5-1.9l14.7-14.7h52l-36.8,36.8h-20.9c-3.5,0-6.4,2.9-6.4,6.4c0,3.5,2.9,6.4,6.4,6.4h8.1
	l-1.5,1.5h-20.9c-3.5,0-6.4,2.9-6.4,6.4c0,3.5,2.9,6.4,6.4,6.4h8.1l-6.4,6.4c-3.3,3.3-3.3,8.7,0,12.1c1.7,1.7,3.8,2.5,6,2.5
	c2.2,0,4.4-0.8,6-2.5l6.4-6.4v8.1c0,3.5,2.9,6.4,6.4,6.4c3.5,0,6.4-2.9,6.4-6.4v-20.9l1.5-1.5v8.1c0,3.5,2.9,6.4,6.4,6.4
	c3.5,0,6.4-2.9,6.4-6.4v-20.9l36.8-36.8v52l-14.7,14.7c-2.5,2.5-2.5,6.5,0,9c1.2,1.2,2.9,1.9,4.5,1.9c1.6,0,3.3-0.6,4.5-1.9l5.7-5.7
	v2.2l-14.7,14.7c-2.5,2.5-2.5,6.5,0,9c1.2,1.2,2.9,1.9,4.5,1.9c1.6,0,3.3-0.6,4.5-1.9l5.7-5.7v9c0,4.7,3.8,8.5,8.5,8.5
	c4.7,0,8.5-3.8,8.5-8.5v-9l5.7,5.7c1.2,1.2,2.9,1.9,4.5,1.9s3.3-0.6,4.5-1.9c2.5-2.5,2.5-6.5,0-9l-14.7-14.7v-2.2l5.7,5.7
	c1.2,1.2,2.9,1.9,4.5,1.9s3.3-0.6,4.5-1.9c2.5-2.5,2.5-6.5,0-9l-14.7-14.7v-52l36.8,36.8v20.9c0,3.5,2.9,6.4,6.4,6.4
	c3.5,0,6.4-2.9,6.4-6.4v-8.1l1.5,1.5v20.9c0,3.5,2.9,6.4,6.4,6.4c3.5,0,6.4-2.9,6.4-6.4v-8.1l6.4,6.4c1.7,1.7,3.8,2.5,6,2.5
	s4.4-0.8,6-2.5c3.3-3.3,3.3-8.7,0-12.1l-6.4-6.4h8.1c3.5,0,6.4-2.9,6.4-6.4c0-3.5-2.9-6.4-6.4-6.4h-20.9l-1.5-1.5h8.1
	c3.5,0,6.4-2.9,6.4-6.4c0-3.5-2.9-6.4-6.4-6.4h-20.9l-36.8-36.8h52l14.7,14.7c1.2,1.2,2.9,1.9,4.5,1.9s3.3-0.6,4.5-1.9
	c2.5-2.5,2.5-6.5,0-9l-5.7-5.7h2.2l14.7,14.7c1.2,1.2,2.9,1.9,4.5,1.9s3.3-0.6,4.5-1.9c2.5-2.5,2.5-6.5,0-9l-5.7-5.7h9
	c4.7,0,8.5-3.8,8.5-8.5C384.5,251.3,380.7,247.5,376,247.5z"/>
<rect fill="none" width="512" height="512"/>
</svg>
