<?xml version="1.0" encoding="utf-8"?>
<!-- Generator: Adobe Illustrator 21.0.2, SVG Export Plug-In . SVG Version: 6.00 Build 0)  -->
<svg version="1.2" baseProfile="tiny"
	 id="Layer_1" xmlns:cc="http://creativecommons.org/ns#" xmlns:dc="http://purl.org/dc/elements/1.1/" xmlns:rdf="http://www.w3.org/1999/02/22-rdf-syntax-ns#"
	 xmlns="http://www.w3.org/2000/svg" xmlns:xlink="http://www.w3.org/1999/xlink" x="0px" y="0px" viewBox="0 0 512 512"
	 overflow="scroll" xml:space="preserve">
<g>
	<path d="M256.6,257.4c1,21.4,14.4,28.1,28,28.9c0.1,0,0.3,0,0.4,0C283.5,263.9,269.9,258,256.6,257.4z"/>
	<path d="M256.3,187.1c-38.6,0-70,31.4-70,70c0,38.6,31.4,70,70,70s70-31.4,70-70S294.9,187.1,256.3,187.1z M256.7,200.8
		c1,21.4,14.3,27.3,27.9,28.1c0.1,0,0.3,0,0.4,0c-0.1,0-0.3,0-0.4,0c-6.1-0.2-27.3,5.5-27.9,28.4c-1.5-22.4-15-27.6-28.3-28.3
		C246.9,226.7,255,220.9,256.7,200.8z M285,286.3C285,286.3,285,286.3,285,286.3C285,286.3,285,286.3,285,286.3
		C285,286.3,285,286.3,285,286.3C285,286.3,285,286.3,285,286.3L285,286.3C285,286.3,285,286.3,285,286.3
		C285,286.3,285,286.3,285,286.3c-0.1,0-0.3,0-0.4,0c-6.1-0.2-27,5-27.6,27.9c-1.5-22.4-15.1-27.6-28.4-28.2
		c18.6-2.4,26.4-8.4,28.1-28.6c0,0,0,0,0,0c0,0,0,0,0,0c0,0,0,0,0,0c0,0,0,0,0,0c18.6-2.4,26.7-8.3,28.3-28.4
		c1,21.3,13.9,28,27.4,28.6c0.2,0,0.5,0,0.6,0c-0.2,0-0.4,0-0.6,0C305.8,257.6,285.6,263.7,285,286.3z"/>
	<circle cx="285" cy="286.3" r="0"/>
	<ellipse transform="matrix(0.6196 -0.7849 0.7849 0.6196 -104.4015 299.2714)" cx="256.6" cy="257.4" rx="0" ry="0"/>
</g>
<rect fill="none" width="512" height="512"/>
</svg>
